<?xml version="1.0" encoding="UTF-8" standalone="no"?>
<svg xmlns="http://www.w3.org/2000/svg"
     xmlns:exsl="http://exslt.org/common"
     xmlns:math="http://www.w3.org/2005/xpath-functions/math"
     xmlns:xsd="http://www.w3.org/2001/XMLSchema"
     width="1000"
     height="1000"
     id="svg2"
     version="1.0"
     x="0.00000000000"
     y="0.00000000000">
   <line x1="500"
         y1="500"
         x2="421.9208569955643"
         y2="470.877975757297"
         style="stroke-width:5;stroke:black;"/>
   <path d="M 583.3333358764648                    500                   A 83.33333587646484 83.33333587646484 0 1 0                     562.9791213938042                      554.5717430247942"
         style="stroke: black; fill:none;stroke-width:5;"/>
   <line x1="583.3333358764648"
         y1="500"
         x2="666.6666717529297"
         y2="500"
         style="stroke-width:5;stroke:black;"/>
   <line x1="666.6666717529297"
         y1="500"
         x2="833.3333435058594"
         y2="500.00000000000006"
         style="stroke-width:5;stroke:black;"
         stroke-dasharray="3"/>
   <line x1="494.05507315111623"
         y1="416.8789875358756"
         x2="488.11014630223247"
         y2="333.7579750717512"
         style="stroke-width:5;stroke:black;"/>
   <path d="M 625.9582692425618                    390.8565444810496                   A 166.6666717529297 166.6666717529297 0 0 0                     359.79108251747135                      409.8931804380141"
         style="stroke: black; fill:none;stroke-width:5;"/>
   <line x1="625.9582692425618"
         y1="390.8565444810496"
         x2="688.9374038638427"
         y2="336.2848167215743"
         style="stroke-width:5;stroke:black;"/>
   <path d="M 739.8732514999781                    429.5668612830186                   A 250.00000762939453 250.00000762939453 0 0 0                     603.8537664417881                      272.59199879830123"
         style="stroke: black; fill:none;stroke-width:5;"/>
   <line x1="739.8732514999781"
         y1="429.5668612830186"
         x2="819.8310019999708"
         y2="406.08914837735813"
         style="stroke-width:5;stroke:black;"/>
   <line x1="710.3133926043295"
         y1="364.83979614563145"
         x2="780.4178568057728"
         y2="319.78639486084194"
         style="stroke-width:5;stroke:black;"/>
   <line x1="663.7151947274158"
         y1="311.0626060567638"
         x2="718.2869263032211"
         y2="248.0834747423517"
         style="stroke-width:5;stroke:black;"/>
   <line x1="603.8537664417881"
         y1="272.59199879830123"
         x2="638.4716885890508"
         y2="196.78933173106827"
         style="stroke-width:5;stroke:black;"/>
   <line x1="523.7191495239365"
         y1="335.0297559586579"
         x2="535.5787242859047"
         y2="252.54463393798693"
         style="stroke-width:5;stroke:black;"/>
   <line x1="535.5787242859047"
         y1="252.54463393798693"
         x2="547.438299047873"
         y2="170.0595119173159"
         style="stroke-width:5;stroke:black;"
         stroke-dasharray="3"/>
   <line x1="453.0445838790369"
         y1="340.0844961546692"
         x2="429.5668758185554"
         y2="260.1267442320038"
         style="stroke-width:5;stroke:black;"/>
   <path d="M 464.4213057040717                    252.54462962607946                   A 250.00000762939453 250.00000762939453 0 0 0                     396.14626111857893                      272.5919862119038"
         style="stroke: black; fill:none;stroke-width:5;"/>
   <line x1="464.4213057040717"
         y1="252.54462962607943"
         x2="452.5617409387622"
         y2="170.05950616810594"
         style="stroke-width:5;stroke:black;"/>
   <line x1="396.14626111857893"
         y1="272.5919862119038"
         x2="361.52834815810525"
         y2="196.7893149492051"
         style="stroke-width:5;stroke:black;"/>
   <line x1="390.85655211371005"
         y1="374.041724143701"
         x2="336.28482817056505"
         y2="311.0625862155515"
         style="stroke-width:5;stroke:black;"/>
   <line x1="336.28482817056505"
         y1="311.0625862155515"
         x2="281.7131042274201"
         y2="248.08344828740195"
         style="stroke-width:5;stroke:black;"
         stroke-dasharray="3"/>
   <line x1="359.79108251747135"
         y1="409.8931804380141"
         x2="289.68662377620706"
         y2="364.8397706570212"
         style="stroke-width:5;stroke:black;"/>
   <line x1="289.68662377620706"
         y1="364.8397706570212"
         x2="219.5821650349427"
         y2="319.7863608760282"
         style="stroke-width:5;stroke:black;"
         stroke-dasharray="3"/>
   <line x1="437.0208587649821"
         y1="554.5717201268145"
         x2="374.0417175299643"
         y2="609.143440253629"
         style="stroke-width:5;stroke:black;"/>
   <path d="M 340.08450469070704                    453.04455480796383                   A 166.6666717529297 166.6666717529297 0 0 0                     523.7191095373009                      664.9702497905496"
         style="stroke: black; fill:none;stroke-width:5;"/>
   <line x1="340.08450469070704"
         y1="453.04455480796383"
         x2="260.12675703606055"
         y2="429.5668322119458"
         style="stroke-width:5;stroke:black;"/>
   <line x1="260.12675703606055"
         y1="429.5668322119458"
         x2="180.16900938141407"
         y2="406.08910961592767"
         style="stroke-width:5;stroke:black;"
         stroke-dasharray="3"/>
   <line x1="333.33332824707156"
         y1="499.99997980108657"
         x2="249.9999923706073"
         y2="499.9999697016299"
         style="stroke-width:5;stroke:black;"/>
   <line x1="249.9999923706073"
         y1="499.9999697016299"
         x2="166.66665649414307"
         y2="499.99995960217313"
         style="stroke-width:5;stroke:black;"
         stroke-dasharray="3"/>
   <line x1="390.8565215830705"
         y1="625.9582494013475"
         x2="336.28478237460575"
         y2="688.9373741020212"
         style="stroke-width:5;stroke:black;"/>
   <path d="M 260.12673996398667                    570.4331096459075                   A 250.00000762939453 250.00000762939453 0 0 0                     464.4212457241194                      747.4553617501019"
         style="stroke: black; fill:none;stroke-width:5;"/>
   <line x1="260.12673996398667"
         y1="570.4331096459075"
         x2="180.1689866186489"
         y2="593.91081286121"
         style="stroke-width:5;stroke:black;"/>
   <line x1="289.68659101513697"
         y1="635.1601783657563"
         x2="219.58212135351596"
         y2="680.2135711543417"
         style="stroke-width:5;stroke:black;"/>
   <line x1="336.28478237460575"
         y1="688.9373741020212"
         x2="281.713043166141"
         y2="751.916498802695"
         style="stroke-width:5;stroke:black;"/>
   <line x1="396.1462059978463"
         y1="727.4079886152981"
         x2="361.5282746637951"
         y2="803.2106514870641"
         style="stroke-width:5;stroke:black;"/>
   <line x1="464.4212457241194"
         y1="747.4553617501019"
         x2="452.56166096549254"
         y2="829.9404823334693"
         style="stroke-width:5;stroke:black;"/>
   <line x1="523.7191095373009"
         y1="664.9702497905496"
         x2="535.5786643059514"
         y2="747.4553746858244"
         style="stroke-width:5;stroke:black;"/>
   <line x1="535.5786643059514"
         y1="747.4553746858244"
         x2="547.4382190746019"
         y2="829.9404995810992"
         style="stroke-width:5;stroke:black;"
         stroke-dasharray="3"/>
   <line x1="562.9791213938042"
         y1="554.5717430247942"
         x2="625.9582427876085"
         y2="609.1434860495884"
         style="stroke-width:5;stroke:black;"/>
   <path d="M 569.2358075473683                    651.6053509163268                   A 166.6666717529297 166.6666717529297 0 0 0                     659.9154896185981                      546.9554645727507"
         style="stroke: black; fill:none;stroke-width:5;"/>
   <line x1="569.2358075473683"
         y1="651.6053509163268"
         x2="603.8537113210525"
         y2="727.4080263744902"
         style="stroke-width:5;stroke:black;"/>
   <line x1="603.8537113210525"
         y1="727.4080263744902"
         x2="638.4716150947366"
         y2="803.2107018326535"
         style="stroke-width:5;stroke:black;"
         stroke-dasharray="3"/>
   <line x1="609.1434326209678"
         y1="625.958289083772"
         x2="663.7151489314517"
         y2="688.9374336256581"
         style="stroke-width:5;stroke:black;"/>
   <line x1="663.7151489314517"
         y1="688.9374336256581"
         x2="718.2868652419356"
         y2="751.916578167544"
         style="stroke-width:5;stroke:black;"
         stroke-dasharray="3"/>
   <line x1="640.2089065621689"
         y1="590.1068365543914"
         x2="710.3133598432534"
         y2="635.160254831587"
         style="stroke-width:5;stroke:black;"/>
   <line x1="710.3133598432534"
         y1="635.160254831587"
         x2="780.4178131243377"
         y2="680.2136731087828"
         style="stroke-width:5;stroke:black;"
         stroke-dasharray="3"/>
   <line x1="659.9154896185981"
         y1="546.9554645727507"
         x2="739.8732344278972"
         y2="570.433196859126"
         style="stroke-width:5;stroke:black;"/>
   <line x1="739.8732344278972"
         y1="570.433196859126"
         x2="819.8309792371963"
         y2="593.9109291455013"
         style="stroke-width:5;stroke:black;"
         stroke-dasharray="3"/>
</svg>
